<?xml version="1.0" standalone="no"?>
<!DOCTYPE svg PUBLIC "-//W3C//DTD SVG 20010904//EN"
 "http://www.w3.org/TR/2001/REC-SVG-20010904/DTD/svg10.dtd">
<svg version="1.0" xmlns="http://www.w3.org/2000/svg"
 width="1772.000000pt" height="1772.000000pt" viewBox="0 0 1772.000000 1772.000000"
 preserveAspectRatio="xMidYMid meet">

<g transform="translate(0.000000,1772.000000) scale(0.100000,-0.100000)"
fill="#000000" stroke="none">
<path d="M0 8860 l0 -8860 2955 0 2955 0 -2950 4425 c-1622 2434 -2950 4429
-2950 4435 0 6 1328 2001 2950 4435 l2950 4425 -2955 0 -2955 0 0 -8860z"/>
<path d="M8856 13289 l-2954 -4432 2951 -4428 2952 -4428 2958 -1 2957 0
-2951 4426 c-1623 2434 -2948 4432 -2945 4439 2 7 1327 1997 2943 4421 1617
2425 2943 4415 2947 4422 6 9 -587 12 -2948 12 l-2956 0 -2954 -4431z"/>
</g>
</svg>
